<?xml version="1.0" standalone="no"?>
<!DOCTYPE svg PUBLIC "-//W3C//DTD SVG 20010904//EN"
 "http://www.w3.org/TR/2001/REC-SVG-20010904/DTD/svg10.dtd">
<svg version="1.0" xmlns="http://www.w3.org/2000/svg"
 width="404.000000pt" height="425.000000pt" viewBox="0 0 404.000000 425.000000"
 preserveAspectRatio="xMidYMid meet">

<g transform="translate(0.000000,425.000000) scale(0.100000,-0.100000)"
fill="#000000" stroke="none">
<path d="M1955 4101 c-3 -6 -9 -153 -12 -326 l-6 -315 82 0 81 0 -2 323 -3
322 -67 3 c-38 2 -69 -2 -73 -7z"/>
<path d="M1680 4083 c-19 -3 -39 -8 -45 -13 -5 -4 -36 -11 -67 -14 -54 -7 -64
-14 -58 -41 1 -5 8 -41 17 -80 8 -38 19 -97 24 -130 5 -33 13 -67 18 -76 5 -8
12 -46 16 -82 4 -37 11 -70 15 -72 5 -3 12 -34 15 -70 11 -101 14 -103 130
-80 53 11 103 24 111 30 9 7 11 23 7 52 -5 42 -6 42 -52 45 -45 3 -46 4 -53
43 -4 22 -12 63 -17 90 -27 133 -27 133 10 143 30 8 34 12 33 41 -3 53 -10 61
-54 61 -37 0 -41 2 -38 22 2 13 11 24 23 26 30 6 45 22 45 49 0 31 -17 63 -33
61 -7 0 -28 -3 -47 -5z"/>
<path d="M2338 4043 c-16 -18 -36 -77 -73 -218 -31 -119 -48 -183 -60 -230
-23 -86 -26 -131 -11 -144 8 -7 38 -14 66 -18 60 -7 80 8 80 58 0 14 6 32 14
38 23 20 35 -8 26 -64 -9 -56 -6 -65 19 -65 9 0 21 -4 26 -9 6 -5 29 -11 52
-15 40 -6 43 -5 48 21 6 29 11 48 45 178 12 44 25 96 30 115 5 19 21 77 35
128 14 51 25 108 25 126 0 36 -28 69 -70 81 -14 4 -31 12 -38 18 -7 5 -54 12
-105 15 -82 4 -94 2 -109 -15z m157 -140 c-3 -21 -13 -51 -21 -67 -8 -16 -14
-42 -14 -57 0 -15 -4 -30 -9 -33 -5 -3 -12 -26 -15 -51 -8 -49 -20 -63 -40
-46 -10 9 -11 21 -3 54 5 23 13 49 17 58 5 9 14 45 21 80 15 81 24 99 50 99
19 0 20 -4 14 -37z"/>
<path d="M1180 3920 c-8 -4 -58 -29 -110 -55 -52 -26 -100 -51 -107 -57 -11
-9 10 -55 143 -308 19 -36 57 -109 85 -163 28 -54 56 -100 63 -103 7 -3 29 4
47 15 19 12 44 25 57 31 30 13 28 30 -14 108 -77 142 -84 156 -84 174 0 13 6
18 17 16 17 -3 52 -60 107 -174 34 -69 47 -79 88 -65 18 6 47 22 63 35 l30 24
-55 108 c-60 118 -91 161 -125 174 -20 8 -22 14 -18 53 4 35 0 52 -21 85 -14
23 -26 45 -26 50 0 5 -13 20 -28 35 -29 28 -80 36 -112 17z m29 -182 c20 -37
23 -49 14 -59 -9 -9 -15 -10 -27 0 -21 18 -48 80 -42 98 9 23 27 11 55 -39z"/>
<path d="M665 3570 l-79 -79 75 -78 c41 -43 139 -147 219 -231 79 -83 150
-152 156 -152 7 0 49 34 94 77 l81 76 -32 34 c-39 39 -45 40 -76 11 l-24 -22
-94 94 c-52 52 -95 101 -95 109 0 8 10 25 22 38 l22 23 -29 30 c-34 36 -42 37
-72 9 -18 -18 -25 -20 -38 -9 -21 18 -19 33 10 60 l25 24 -32 33 c-17 18 -37
33 -43 33 -6 0 -46 -36 -90 -80z"/>
<path d="M1966 3412 c-3 -4 -20 -70 -40 -146 -19 -76 -40 -145 -48 -152 -9 -8
-72 -16 -188 -24 -96 -6 -211 -15 -255 -20 -44 -6 -105 -10 -137 -10 -37 0
-58 -4 -58 -12 0 -13 231 -6 468 14 168 14 172 13 154 -59 -6 -27 -25 -106
-42 -178 -17 -71 -35 -146 -40 -165 -13 -46 -29 -112 -43 -180 -7 -30 -15 -59
-19 -65 -3 -5 -9 -32 -13 -60 -4 -27 -11 -54 -15 -60 -4 -5 -11 -34 -15 -62
-4 -29 -11 -55 -16 -59 -5 -3 -9 -18 -9 -34 0 -42 -29 -110 -47 -110 -8 0 -29
6 -46 14 -18 7 -68 25 -112 39 -44 14 -138 46 -210 72 -71 25 -143 50 -160 55
-207 60 -468 172 -589 252 -48 32 -195 209 -196 236 0 6 -9 12 -20 12 -14 0
-20 -7 -20 -22 0 -19 51 -181 79 -253 5 -11 14 -38 21 -60 16 -53 61 -156 123
-285 46 -97 59 -114 161 -215 143 -141 405 -338 636 -479 25 -15 81 -50 125
-78 44 -28 94 -59 110 -68 97 -57 245 -149 273 -170 42 -31 67 -72 93 -150 26
-79 31 -108 36 -200 4 -73 -7 -124 -65 -290 -15 -44 19 15 48 83 18 42 37 77
42 77 16 0 -4 -134 -38 -247 -19 -62 -34 -119 -34 -127 0 -17 21 -26 60 -26
15 0 52 -9 82 -19 116 -41 143 -46 263 -45 123 1 174 13 234 56 24 17 21 38
-6 38 -9 0 -36 16 -60 36 -45 37 -95 123 -108 187 -4 17 -18 64 -32 102 -30
83 -41 226 -25 326 22 144 75 210 342 429 91 74 226 187 300 250 74 63 160
135 190 160 251 203 483 434 585 580 21 30 64 89 95 130 72 95 103 147 98 162
-3 8 -14 1 -29 -16 -25 -29 -208 -177 -259 -209 -16 -10 -69 -32 -117 -49 -90
-31 -103 -35 -283 -86 -58 -17 -132 -39 -165 -50 -33 -10 -94 -29 -135 -42
-76 -23 -209 -67 -485 -160 -82 -28 -164 -61 -181 -72 -29 -20 -110 -129 -126
-170 -12 -29 -24 -20 -86 61 -69 90 -150 147 -252 179 -41 13 -82 27 -90 32
-23 11 -18 41 35 220 9 30 23 79 31 108 24 87 45 164 59 217 8 28 19 70 26 95
6 25 15 54 20 65 4 11 10 31 14 45 3 14 12 49 21 77 8 29 22 79 30 110 9 32
23 74 32 93 l17 35 115 7 c63 4 203 12 310 18 862 44 873 46 854 95 -7 16 -18
17 -123 12 -63 -4 -158 -11 -210 -17 -111 -12 -289 -26 -516 -40 -88 -6 -179
-15 -202 -20 -23 -6 -83 -10 -134 -10 l-91 0 6 28 c7 26 35 129 58 204 8 29 8
41 -2 53 -13 16 -46 20 -54 7z m-1207 -1125 c34 -17 41 -41 10 -32 -54 15
-154 71 -157 87 -3 17 29 5 147 -55z m2246 -161 c-220 -73 -476 -161 -569
-195 -107 -39 -172 -59 -178 -53 -6 6 12 18 49 32 194 73 466 167 611 210 219
66 243 74 332 100 41 11 84 25 95 30 11 5 29 9 40 9 11 0 -160 -60 -380 -133z
m-2029 93 c49 -17 249 -85 444 -151 368 -125 441 -155 500 -208 l35 -31 -40
24 c-52 30 -170 78 -265 107 -156 47 -716 233 -742 246 -16 8 -28 21 -28 29 0
19 -9 20 96 -16z m1158 -1226 c21 -76 62 -212 92 -302 30 -90 53 -166 50 -168
-13 -13 -91 186 -162 411 -46 147 -53 196 -31 196 9 0 27 -48 51 -137z m171
87 c-3 -5 -18 -10 -33 -10 -21 0 -24 2 -12 10 20 13 53 13 45 0z m-411 -87
c21 -43 68 -203 64 -221 -2 -9 -15 15 -27 53 -13 39 -34 94 -47 124 -13 29
-24 57 -24 62 0 19 20 8 34 -18z"/>
<path d="M361 3218 c-52 -70 -91 -150 -91 -187 0 -36 50 -82 135 -125 72 -36
111 -31 194 24 33 22 66 40 74 40 32 0 127 -64 127 -86 0 -21 -30 -17 -75 11
-22 13 -46 25 -53 25 -14 0 -85 -107 -78 -118 3 -5 36 -27 75 -50 91 -54 134
-56 177 -9 59 64 114 162 114 205 0 23 -65 83 -141 131 -37 23 -70 35 -105 39
-47 4 -57 1 -110 -35 -78 -53 -95 -58 -135 -35 -40 22 -52 62 -20 62 11 0 23
-4 26 -10 10 -16 51 -11 66 8 20 24 49 78 49 90 0 6 -23 24 -50 41 -36 22 -63
31 -95 31 -42 0 -47 -3 -84 -52z"/>
<path d="M2383 3026 c-11 -14 -26 -40 -32 -58 -32 -86 -40 -98 -66 -98 -16 0
-25 -6 -25 -15 0 -8 7 -15 15 -15 9 0 18 -6 21 -13 10 -26 -89 -234 -125 -261
l-24 -19 5 32 c6 38 -14 60 -37 41 -8 -7 -15 -17 -15 -22 0 -10 -31 -82 -58
-137 -17 -33 -37 -49 -49 -38 -10 11 19 112 50 176 21 41 51 81 86 112 46 41
52 51 41 64 -7 8 -18 15 -25 15 -22 0 -96 -90 -122 -148 -13 -31 -28 -64 -33
-74 -19 -34 -32 -145 -21 -167 19 -34 48 -25 83 24 35 49 42 53 56 28 15 -25
38 -9 63 44 40 84 77 113 65 51 -35 -170 -42 -258 -23 -283 14 -18 17 -18 42
-5 15 8 47 42 71 76 42 58 53 85 37 84 -11 -1 -83 -113 -83 -129 0 -7 -9 -11
-22 -9 -22 3 -23 7 -19 73 1 39 9 88 16 110 7 22 16 54 19 70 10 44 66 224 84
268 9 21 23 42 33 48 23 12 96 12 104 -1 3 -5 15 -10 26 -10 26 0 25 -27 -6
-94 -14 -30 -25 -61 -25 -68 0 -8 -22 -56 -50 -108 -27 -52 -50 -103 -50 -115
0 -12 15 7 37 48 19 37 39 67 43 67 10 0 10 -82 0 -95 -19 -25 -34 -178 -21
-204 25 -45 68 -15 143 102 28 42 54 77 59 77 5 0 13 -9 19 -20 7 -13 21 -20
40 -20 22 0 39 12 76 55 45 53 50 56 88 53 40 -3 41 -4 38 -36 -6 -57 39 -88
88 -62 11 6 33 30 50 55 26 38 36 45 65 45 28 0 41 9 77 50 24 27 51 63 61 80
16 26 16 30 3 30 -8 0 -33 -27 -56 -59 -63 -94 -113 -95 -90 -3 8 34 8 56 1
68 -5 11 -12 27 -15 37 -3 11 -15 17 -34 17 -33 0 -71 -36 -96 -91 -23 -49
-80 -103 -101 -96 -13 6 -15 17 -9 71 12 115 -42 153 -111 79 -19 -21 -35 -42
-35 -48 0 -5 -9 -28 -20 -50 -11 -22 -19 -45 -20 -51 0 -6 -11 -31 -25 -55
-13 -24 -33 -60 -44 -79 -27 -50 -100 -130 -118 -130 -19 0 -15 37 15 175 23
103 106 361 123 381 7 8 30 14 55 14 25 0 52 4 62 10 9 5 67 14 127 19 61 6
146 15 190 20 44 6 116 15 160 20 120 14 150 23 150 46 0 17 -7 20 -50 19 -27
-1 -74 -5 -103 -9 -37 -5 -60 -4 -76 5 -14 7 -42 10 -67 7 -96 -11 -206 -29
-241 -39 -20 -6 -62 -11 -95 -12 -47 -1 -57 2 -55 14 15 62 14 80 -3 86 -27
11 -47 -7 -80 -72 l-30 -59 -73 -9 c-40 -5 -75 -7 -78 -4 -3 3 2 24 11 46 31
77 1 133 -42 78z m413 -432 c4 -39 0 -57 -18 -88 -27 -45 -49 -62 -72 -53 -22
8 -20 45 4 110 22 60 57 104 71 90 5 -5 12 -32 15 -59z m248 16 c12 -88 -25
-165 -76 -158 -28 4 -33 24 -19 75 12 43 66 133 79 133 5 0 12 -23 16 -50z"/>
</g>
</svg>
